<svg width="18" height="16" viewBox="0 0 18 16" fill="none" xmlns="http://www.w3.org/2000/svg">
<path d="M18 7.99999C18 8.1989 17.921 8.38967 17.7803 8.53032C17.6397 8.67097 17.4489 8.74999 17.25 8.74999H2.56029L8.03061 14.2194C8.10029 14.289 8.15556 14.3718 8.19328 14.4628C8.23099 14.5539 8.2504 14.6514 8.2504 14.75C8.2504 14.8485 8.23099 14.9461 8.19328 15.0372C8.15556 15.1282 8.10029 15.2109 8.03061 15.2806C7.96092 15.3503 7.8782 15.4056 7.78715 15.4433C7.69611 15.481 7.59853 15.5004 7.49998 15.5004C7.40143 15.5004 7.30385 15.481 7.21281 15.4433C7.12176 15.4056 7.03904 15.3503 6.96935 15.2806L0.219355 8.53061C0.149622 8.46096 0.0943031 8.37824 0.0565599 8.2872C0.0188166 8.19615 -0.000610352 8.09855 -0.000610352 7.99999C-0.000610352 7.90143 0.0188166 7.80383 0.0565599 7.71278C0.0943031 7.62174 0.149622 7.53902 0.219355 7.46936L6.96935 0.719365C7.11009 0.578634 7.30096 0.499573 7.49998 0.499573C7.699 0.499573 7.88987 0.578634 8.03061 0.719365C8.17134 0.860095 8.2504 1.05097 8.2504 1.24999C8.2504 1.44901 8.17134 1.63988 8.03061 1.78061L2.56029 7.24999H17.25C17.4489 7.24999 17.6397 7.32901 17.7803 7.46966C17.921 7.61031 18 7.80108 18 7.99999Z" fill="#F5F6F6"/>
</svg>
