<svg width="16" height="18" viewBox="0 0 16 18" fill="none" xmlns="http://www.w3.org/2000/svg">
<path d="M15.2807 8.03061C15.211 8.10034 15.1283 8.15566 15.0373 8.1934C14.9462 8.23114 14.8486 8.25057 14.7501 8.25057C14.6515 8.25057 14.5539 8.23114 14.4628 8.1934C14.3718 8.15566 14.2891 8.10034 14.2194 8.03061L8.75005 2.56029V17.25C8.75005 17.4489 8.67103 17.6397 8.53038 17.7803C8.38973 17.921 8.19896 18 8.00005 18C7.80114 18 7.61037 17.921 7.46972 17.7803C7.32907 17.6397 7.25005 17.4489 7.25005 17.25V2.56029L1.78068 8.03061C1.63995 8.17134 1.44907 8.2504 1.25005 8.2504C1.05103 8.2504 0.860156 8.17134 0.719426 8.03061C0.578695 7.88987 0.499634 7.699 0.499634 7.49998C0.499634 7.30096 0.578695 7.11009 0.719426 6.96935L7.46943 0.219355C7.53908 0.149622 7.6218 0.0943031 7.71285 0.0565599C7.80389 0.0188166 7.90149 -0.000610352 8.00005 -0.000610352C8.09861 -0.000610352 8.19621 0.0188166 8.28726 0.0565599C8.3783 0.0943031 8.46102 0.149622 8.53068 0.219355L15.2807 6.96935C15.3504 7.03901 15.4057 7.12173 15.4435 7.21277C15.4812 7.30382 15.5006 7.40142 15.5006 7.49998C15.5006 7.59854 15.4812 7.69614 15.4435 7.78718C15.4057 7.87823 15.3504 7.96095 15.2807 8.03061Z" fill="#F5F6F6"/>
</svg>
